<svg id="visual" viewBox="0 0 960 200" width="960" height="200" xmlns="http://www.w3.org/2000/svg" xmlns:xlink="http://www.w3.org/1999/xlink" version="1.1"><path d="M0 75L17.8 79.7C35.7 84.3 71.3 93.7 106.8 96.2C142.3 98.7 177.7 94.3 213.2 90.5C248.7 86.7 284.3 83.3 320 80.5C355.7 77.7 391.3 75.3 426.8 78.7C462.3 82 497.7 91 533.2 90.2C568.7 89.3 604.3 78.7 640 75.2C675.7 71.7 711.3 75.3 746.8 77.7C782.3 80 817.7 81 853.2 85C888.7 89 924.3 96 942.2 99.5L960 103L960 201L942.2 201C924.3 201 888.7 201 853.2 201C817.7 201 782.3 201 746.8 201C711.3 201 675.7 201 640 201C604.3 201 568.7 201 533.2 201C497.7 201 462.3 201 426.8 201C391.3 201 355.7 201 320 201C284.3 201 248.7 201 213.2 201C177.7 201 142.3 201 106.8 201C71.3 201 35.7 201 17.8 201L0 201Z" fill="#0066ff"></path><path d="M0 138L17.8 131.5C35.7 125 71.3 112 106.8 106.5C142.3 101 177.7 103 213.2 102.8C248.7 102.7 284.3 100.3 320 99.8C355.7 99.3 391.3 100.7 426.8 104.5C462.3 108.3 497.7 114.7 533.2 119.2C568.7 123.7 604.3 126.3 640 121.7C675.7 117 711.3 105 746.8 102.3C782.3 99.7 817.7 106.3 853.2 106.7C888.7 107 924.3 101 942.2 98L960 95L960 201L942.2 201C924.3 201 888.7 201 853.2 201C817.7 201 782.3 201 746.8 201C711.3 201 675.7 201 640 201C604.3 201 568.7 201 533.2 201C497.7 201 462.3 201 426.8 201C391.3 201 355.7 201 320 201C284.3 201 248.7 201 213.2 201C177.7 201 142.3 201 106.8 201C71.3 201 35.7 201 17.8 201L0 201Z" fill="#9850e9"></path><path d="M0 125L17.8 121.8C35.7 118.7 71.3 112.3 106.8 113.5C142.3 114.7 177.7 123.3 213.2 126.7C248.7 130 284.3 128 320 126C355.7 124 391.3 122 426.8 122.3C462.3 122.7 497.7 125.3 533.2 127.8C568.7 130.3 604.3 132.7 640 134.2C675.7 135.7 711.3 136.3 746.8 135.2C782.3 134 817.7 131 853.2 128.8C888.7 126.7 924.3 125.3 942.2 124.7L960 124L960 201L942.2 201C924.3 201 888.7 201 853.2 201C817.7 201 782.3 201 746.8 201C711.3 201 675.7 201 640 201C604.3 201 568.7 201 533.2 201C497.7 201 462.3 201 426.8 201C391.3 201 355.7 201 320 201C284.3 201 248.7 201 213.2 201C177.7 201 142.3 201 106.8 201C71.3 201 35.7 201 17.8 201L0 201Z" fill="#d131c8"></path><path d="M0 155L17.8 153.7C35.7 152.3 71.3 149.7 106.8 146.3C142.3 143 177.7 139 213.2 141.2C248.7 143.3 284.3 151.7 320 154.7C355.7 157.7 391.3 155.3 426.8 150.2C462.3 145 497.7 137 533.2 136.5C568.7 136 604.3 143 640 144C675.7 145 711.3 140 746.8 136C782.3 132 817.7 129 853.2 126.8C888.7 124.7 924.3 123.3 942.2 122.7L960 122L960 201L942.2 201C924.3 201 888.7 201 853.2 201C817.7 201 782.3 201 746.8 201C711.3 201 675.7 201 640 201C604.3 201 568.7 201 533.2 201C497.7 201 462.3 201 426.8 201C391.3 201 355.7 201 320 201C284.3 201 248.7 201 213.2 201C177.7 201 142.3 201 106.8 201C71.3 201 35.7 201 17.8 201L0 201Z" fill="#f300a1"></path><path d="M0 151L17.8 149.5C35.7 148 71.3 145 106.8 142.5C142.3 140 177.7 138 213.2 137.7C248.7 137.3 284.3 138.7 320 139.7C355.7 140.7 391.3 141.3 426.8 145C462.3 148.7 497.7 155.3 533.2 156.5C568.7 157.7 604.3 153.3 640 148.8C675.7 144.3 711.3 139.7 746.8 143.2C782.3 146.7 817.7 158.3 853.2 160.5C888.7 162.7 924.3 155.3 942.2 151.7L960 148L960 201L942.2 201C924.3 201 888.7 201 853.2 201C817.7 201 782.3 201 746.8 201C711.3 201 675.7 201 640 201C604.3 201 568.7 201 533.2 201C497.7 201 462.3 201 426.8 201C391.3 201 355.7 201 320 201C284.3 201 248.7 201 213.2 201C177.7 201 142.3 201 106.8 201C71.3 201 35.7 201 17.8 201L0 201Z" fill="#ff0075"></path><path d="M0 151L17.8 153.8C35.7 156.7 71.3 162.3 106.8 167.5C142.3 172.7 177.7 177.3 213.2 174.8C248.7 172.3 284.3 162.7 320 162.5C355.7 162.3 391.3 171.7 426.8 173.7C462.3 175.7 497.7 170.3 533.2 166.2C568.7 162 604.3 159 640 156.8C675.7 154.7 711.3 153.3 746.8 157C782.3 160.7 817.7 169.3 853.2 172.7C888.7 176 924.3 174 942.2 173L960 172L960 201L942.2 201C924.3 201 888.7 201 853.2 201C817.7 201 782.3 201 746.8 201C711.3 201 675.7 201 640 201C604.3 201 568.7 201 533.2 201C497.7 201 462.3 201 426.8 201C391.3 201 355.7 201 320 201C284.3 201 248.7 201 213.2 201C177.7 201 142.3 201 106.8 201C71.3 201 35.7 201 17.8 201L0 201Z" fill="#ff0045"></path><path d="M0 181L17.8 179.2C35.7 177.3 71.3 173.7 106.8 171.7C142.3 169.7 177.7 169.3 213.2 171.7C248.7 174 284.3 179 320 179.5C355.7 180 391.3 176 426.8 174C462.3 172 497.7 172 533.2 172.2C568.7 172.3 604.3 172.7 640 172.2C675.7 171.7 711.3 170.3 746.8 173.5C782.3 176.7 817.7 184.3 853.2 187C888.7 189.7 924.3 187.3 942.2 186.2L960 185L960 201L942.2 201C924.3 201 888.7 201 853.2 201C817.7 201 782.3 201 746.8 201C711.3 201 675.7 201 640 201C604.3 201 568.7 201 533.2 201C497.7 201 462.3 201 426.8 201C391.3 201 355.7 201 320 201C284.3 201 248.7 201 213.2 201C177.7 201 142.3 201 106.8 201C71.3 201 35.7 201 17.8 201L0 201Z" fill="#ff0000"></path></svg>