<svg id="visual" viewBox="0 0 960 300" width="960" height="300" xmlns="http://www.w3.org/2000/svg" xmlns:xlink="http://www.w3.org/1999/xlink" version="1.1"><path d="M0 113L17.8 120C35.7 127 71.3 141 106.8 144.8C142.3 148.7 177.7 142.3 213.2 136.5C248.7 130.7 284.3 125.3 320 121C355.7 116.7 391.3 113.3 426.8 118.3C462.3 123.3 497.7 136.7 533.2 135.5C568.7 134.3 604.3 118.7 640 113.7C675.7 108.7 711.3 114.3 746.8 117.7C782.3 121 817.7 122 853.2 127.8C888.7 133.7 924.3 144.3 942.2 149.7L960 155L960 301L942.2 301C924.3 301 888.7 301 853.2 301C817.7 301 782.3 301 746.8 301C711.3 301 675.7 301 640 301C604.3 301 568.7 301 533.2 301C497.7 301 462.3 301 426.8 301C391.3 301 355.7 301 320 301C284.3 301 248.7 301 213.2 301C177.7 301 142.3 301 106.8 301C71.3 301 35.7 301 17.8 301L0 301Z" fill="#0066ff"></path><path d="M0 208L17.8 198.2C35.7 188.3 71.3 168.7 106.8 160.5C142.3 152.3 177.7 155.7 213.2 155.5C248.7 155.3 284.3 151.7 320 150.7C355.7 149.7 391.3 151.3 426.8 157C462.3 162.7 497.7 172.3 533.2 179.2C568.7 186 604.3 190 640 182.8C675.7 175.7 711.3 157.3 746.8 153.3C782.3 149.3 817.7 159.7 853.2 160.2C888.7 160.7 924.3 151.3 942.2 146.7L960 142L960 301L942.2 301C924.3 301 888.7 301 853.2 301C817.7 301 782.3 301 746.8 301C711.3 301 675.7 301 640 301C604.3 301 568.7 301 533.2 301C497.7 301 462.3 301 426.8 301C391.3 301 355.7 301 320 301C284.3 301 248.7 301 213.2 301C177.7 301 142.3 301 106.8 301C71.3 301 35.7 301 17.8 301L0 301Z" fill="#9850e9"></path><path d="M0 189L17.8 184.2C35.7 179.3 71.3 169.7 106.8 171.2C142.3 172.7 177.7 185.3 213.2 190.2C248.7 195 284.3 192 320 189.2C355.7 186.3 391.3 183.7 426.8 184.3C462.3 185 497.7 189 533.2 192.8C568.7 196.7 604.3 200.3 640 202.5C675.7 204.7 711.3 205.3 746.8 203.3C782.3 201.3 817.7 196.7 853.2 193.5C888.7 190.3 924.3 188.7 942.2 187.8L960 187L960 301L942.2 301C924.3 301 888.7 301 853.2 301C817.7 301 782.3 301 746.8 301C711.3 301 675.7 301 640 301C604.3 301 568.7 301 533.2 301C497.7 301 462.3 301 426.8 301C391.3 301 355.7 301 320 301C284.3 301 248.7 301 213.2 301C177.7 301 142.3 301 106.8 301C71.3 301 35.7 301 17.8 301L0 301Z" fill="#d131c8"></path><path d="M0 233L17.8 230.8C35.7 228.7 71.3 224.3 106.8 219.3C142.3 214.3 177.7 208.7 213.2 212.2C248.7 215.7 284.3 228.3 320 232.8C355.7 237.3 391.3 233.7 426.8 225.8C462.3 218 497.7 206 533.2 205.2C568.7 204.3 604.3 214.7 640 216C675.7 217.3 711.3 209.7 746.8 203.7C782.3 197.7 817.7 193.3 853.2 190.2C888.7 187 924.3 185 942.2 184L960 183L960 301L942.2 301C924.3 301 888.7 301 853.2 301C817.7 301 782.3 301 746.8 301C711.3 301 675.7 301 640 301C604.3 301 568.7 301 533.2 301C497.7 301 462.3 301 426.8 301C391.3 301 355.7 301 320 301C284.3 301 248.7 301 213.2 301C177.7 301 142.3 301 106.8 301C71.3 301 35.7 301 17.8 301L0 301Z" fill="#f300a1"></path><path d="M0 227L17.8 224.7C35.7 222.3 71.3 217.7 106.8 213.8C142.3 210 177.7 207 213.2 206.5C248.7 206 284.3 208 320 209.5C355.7 211 391.3 212 426.8 217.7C462.3 223.3 497.7 233.7 533.2 235.5C568.7 237.3 604.3 230.7 640 223.7C675.7 216.7 711.3 209.3 746.8 214.5C782.3 219.7 817.7 237.3 853.2 240.7C888.7 244 924.3 233 942.2 227.5L960 222L960 301L942.2 301C924.3 301 888.7 301 853.2 301C817.7 301 782.3 301 746.8 301C711.3 301 675.7 301 640 301C604.3 301 568.7 301 533.2 301C497.7 301 462.3 301 426.8 301C391.3 301 355.7 301 320 301C284.3 301 248.7 301 213.2 301C177.7 301 142.3 301 106.8 301C71.3 301 35.7 301 17.8 301L0 301Z" fill="#ff0075"></path><path d="M0 228L17.8 232.2C35.7 236.3 71.3 244.7 106.8 252.2C142.3 259.7 177.7 266.3 213.2 262.5C248.7 258.7 284.3 244.3 320 244.2C355.7 244 391.3 258 426.8 261C462.3 264 497.7 256 533.2 249.7C568.7 243.3 604.3 238.7 640 235.3C675.7 232 711.3 230 746.8 235.7C782.3 241.3 817.7 254.7 853.2 259.8C888.7 265 924.3 262 942.2 260.5L960 259L960 301L942.2 301C924.3 301 888.7 301 853.2 301C817.7 301 782.3 301 746.8 301C711.3 301 675.7 301 640 301C604.3 301 568.7 301 533.2 301C497.7 301 462.3 301 426.8 301C391.3 301 355.7 301 320 301C284.3 301 248.7 301 213.2 301C177.7 301 142.3 301 106.8 301C71.3 301 35.7 301 17.8 301L0 301Z" fill="#ff0045"></path><path d="M0 271L17.8 268.5C35.7 266 71.3 261 106.8 258.3C142.3 255.7 177.7 255.3 213.2 258.8C248.7 262.3 284.3 269.7 320 270.2C355.7 270.7 391.3 264.3 426.8 261.3C462.3 258.3 497.7 258.7 533.2 259C568.7 259.3 604.3 259.7 640 258.8C675.7 258 711.3 256 746.8 260.8C782.3 265.7 817.7 277.3 853.2 281.3C888.7 285.3 924.3 281.7 942.2 279.8L960 278L960 301L942.2 301C924.3 301 888.7 301 853.2 301C817.7 301 782.3 301 746.8 301C711.3 301 675.7 301 640 301C604.3 301 568.7 301 533.2 301C497.7 301 462.3 301 426.8 301C391.3 301 355.7 301 320 301C284.3 301 248.7 301 213.2 301C177.7 301 142.3 301 106.8 301C71.3 301 35.7 301 17.8 301L0 301Z" fill="#ff0000"></path></svg>